<svg xmlns="http://www.w3.org/2000/svg" xmlns:xlink="http://www.w3.org/1999/xlink" viewBox="0 0 203.54 203.54"><defs><style>.cls-1{fill:url(#linear-gradient);}.cls-2{fill:#fff;}</style><linearGradient id="linear-gradient" y1="101.77" x2="203.54" y2="101.77" gradientUnits="userSpaceOnUse"><stop offset="0" stop-color="#983794"/><stop offset="1" stop-color="#662d91"/></linearGradient></defs><g id="Layer_2" data-name="Layer 2"><g id="Layer_1-2" data-name="Layer 1"><circle class="cls-1" cx="101.77" cy="101.77" r="101.77"/><path class="cls-2" d="M88.84,101.82c0-4.42-.07-8.85,0-13.26s3.48-6.31,7.22-4.09Q107,91,117.8,97.75c3.44,2.17,3.49,5.84.08,8q-10.9,6.9-22,13.46c-3.52,2.08-6.92,0-7-4.13C88.76,110.66,88.84,106.24,88.84,101.82Z"/><path class="cls-2" d="M37,101.8A64.64,64.64,0,0,1,54.41,57.64a24.34,24.34,0,0,1,2.16-2.15A3.09,3.09,0,0,1,61,59.76a22,22,0,0,1-1.63,1.72,58.41,58.41,0,0,0,0,80.61,20.35,20.35,0,0,1,1.62,1.73,2.94,2.94,0,0,1-.22,4.26,2.9,2.9,0,0,1-4,.16,16.23,16.23,0,0,1-2.19-2.12A64.56,64.56,0,0,1,37,101.8Z"/><path class="cls-2" d="M166.54,101.91a64.57,64.57,0,0,1-17.66,44.26,15.11,15.11,0,0,1-2.2,2.11,3.08,3.08,0,0,1-4.37-4.24,15,15,0,0,1,1.84-2,58.44,58.44,0,0,0-.05-80.61,18.86,18.86,0,0,1-1.63-1.72,3,3,0,0,1,.25-4.27,2.86,2.86,0,0,1,4-.12,23,23,0,0,1,2.89,2.86A64.71,64.71,0,0,1,166.54,101.91Z"/><path class="cls-2" d="M73.5,69.22a3.18,3.18,0,0,1,2.79,4.39,8.08,8.08,0,0,1-1.49,1.84c-14.4,15.69-14.37,36.84.13,52.73,1.57,1.71,2.55,3.4.56,5.25-1.84,1.71-3.48.69-5-.78-16.8-16.05-16.75-46.15.11-61.86A4.75,4.75,0,0,1,73.5,69.22Z"/><path class="cls-2" d="M145.74,101.86c.09,11.09-4.05,21.78-12.62,30.72-1.59,1.66-3.36,2.62-5.25.68s-.78-3.41.67-5c14.65-16.19,14.64-36.77,0-52.95-1.45-1.6-2.42-3.22-.66-5,1.91-2,3.67-1,5.25.69C141.06,79.26,145.28,89.12,145.74,101.86Z"/></g></g></svg>