<svg xmlns="http://www.w3.org/2000/svg" xmlns:xlink="http://www.w3.org/1999/xlink" viewBox="0 0 111.7 111.7"><defs><style>.cls-1{fill:url(#linear-gradient);}.cls-2{fill:#fff;}</style><linearGradient id="linear-gradient" y1="55.85" x2="111.7" y2="55.85" gradientUnits="userSpaceOnUse"><stop offset="0" stop-color="#8e378a"/><stop offset="1" stop-color="#662d87"/></linearGradient></defs><g id="Layer_2" data-name="Layer 2"><g id="Layer_1-2" data-name="Layer 1"><circle class="cls-1" cx="55.85" cy="55.85" r="55.85"/><path class="cls-2" d="M88.76,31.27c-2,2-4.07,4.05-6.09,6.08a1.15,1.15,0,0,1-.84.37c-2.16.1-4.32.23-6.47.36-.39,0-.48-.06-.45-.45q.21-3.32.37-6.65a.92.92,0,0,1,.37-.65q3-3.06,6.07-6.1h.12c0,.15.11.2.19.28L88.48,31c.08.08.13.21.28.19Z"/><path class="cls-2" d="M71.37,35.84c-.06,1-.14,1.94-.17,2.91a1.17,1.17,0,0,1-.41.88c-.56.53-1.12,1.07-1.63,1.64-.29.32-.48.33-.83.07a24.93,24.93,0,0,0-6.92-3.69A19.94,19.94,0,0,0,40.2,43.3a20.2,20.2,0,0,0-5.29,15A21,21,0,0,0,76.47,61.2a18.66,18.66,0,0,0-4.62-16.69c-.33-.36-.3-.55,0-.84a4.44,4.44,0,0,0,.81-.81,2.9,2.9,0,0,1,2.56-1.15c1.6,0,3.19-.14,4.78-.25a.76.76,0,0,1,.82.43A28.32,28.32,0,0,1,85,59.21C84,70.36,78.4,78.46,68.46,83.5a26.49,26.49,0,0,1-14.7,2.76C42.12,85.16,33.86,79.18,29,68.6a27.07,27.07,0,0,1-2.27-13.54,28.6,28.6,0,0,1,9.35-19.43A28.27,28.27,0,0,1,52.39,28.1a28.88,28.88,0,0,1,18.7,4,.76.76,0,0,1,.45.8C71.45,33.9,71.42,34.87,71.37,35.84Z"/><path class="cls-2" d="M55.13,40.23a18.23,18.23,0,0,1,10.12,3.38c.94.61.93.62.14,1.41-1.38,1.39-2.78,2.77-4.15,4.17a.5.5,0,0,1-.75.1,9.11,9.11,0,0,0-13.7,8.54,9.1,9.1,0,0,0,18.08.61,8.89,8.89,0,0,0-1.18-5.94.5.5,0,0,1,.12-.75C65.39,50.19,67,48.62,68.52,47c.34-.35.48-.29.76,0a15.65,15.65,0,0,1,1.4,19.06c-4,6.26-9.83,9.06-17.19,8.16a17.14,17.14,0,0,1-.72-33.89A13.25,13.25,0,0,1,55.13,40.23Z"/><path class="cls-2" d="M58.22,52.22C57.11,53.32,56,54.4,55,55.45c-.29.28-.36.44,0,.75.66.6,1.28,1.23,1.89,1.88.28.32.44.25.7,0,1.07-1.1,2.16-2.18,3.25-3.28a5.45,5.45,0,1,1-2.55-2.56Z"/></g></g></svg>