<svg xmlns="http://www.w3.org/2000/svg" xmlns:xlink="http://www.w3.org/1999/xlink" viewBox="0 0 111.7 111.7"><defs><style>.cls-1{fill:url(#linear-gradient);}.cls-2{fill:#fcfcfc;}</style><linearGradient id="linear-gradient" y1="55.85" x2="111.7" y2="55.85" gradientUnits="userSpaceOnUse"><stop offset="0" stop-color="#8e378a"/><stop offset="1" stop-color="#662d87"/></linearGradient></defs><g id="Layer_2" data-name="Layer 2"><g id="Layer_1-2" data-name="Layer 1"><circle class="cls-1" cx="55.85" cy="55.85" r="55.85"/><path class="cls-2" d="M23.76,61.81a64.15,64.15,0,0,1,6.57-6.41,49.92,49.92,0,0,1,11-7c.21-.1.41-.31.69-.16A16.95,16.95,0,0,0,62.32,73.72a11,11,0,0,0,.74,3.89c.15.35-.17.31-.34.34a30.54,30.54,0,0,1-7.19.79A36.17,36.17,0,0,1,38,73.6,54.36,54.36,0,0,1,24.2,62.35c-.13-.15-.22-.35-.44-.41Z"/><path class="cls-2" d="M56.21,45A13.1,13.1,0,0,1,68.79,56a12.77,12.77,0,0,1-2.13,9.46c-.26.4-.25.59.09.91.78.72,1.52,1.48,2.26,2.25a.54.54,0,0,0,.69.15A5.37,5.37,0,0,1,75.61,70c3.08,3,6.09,6.07,9.14,9.09.24.25.2.37,0,.59Q81,83.33,77.34,87c-.23.24-.36.21-.58,0-3-3-6.07-6-9.06-9.09a5.36,5.36,0,0,1-1.23-5.84.72.72,0,0,0-.21-.9c-.75-.71-1.47-1.43-2.17-2.17-.3-.32-.49-.35-.87-.09a13.14,13.14,0,1,1-7-24Zm-.37,18.75a5.63,5.63,0,1,0-5.67-5.6A5.62,5.62,0,0,0,55.84,63.71Z"/><path class="cls-2" d="M71.43,64.65a17.15,17.15,0,0,0-1.9-16.47c.25-.12.48.06.7.17A53.68,53.68,0,0,1,87.59,61.5c.2.22.24.36,0,.61a52.91,52.91,0,0,1-7,6.92c-.25.2-.4.19-.61,0s-.72-.7-1.06-1.07A9.51,9.51,0,0,0,71.43,64.65Z"/><path class="cls-2" d="M42.65,33.78c.2,0,.22.13.26.26l2.21,6.5c.08.23,0,.32-.21.4-1,.32-2,.65-2.95,1-.24.09-.33,0-.41-.19-.73-2.18-1.47-4.37-2.22-6.55-.07-.21,0-.29.18-.36,1-.33,2-.68,3-1Z"/><path class="cls-2" d="M72.33,35.12a2.39,2.39,0,0,0-.1.26c-.71,2.07-1.42,4.13-2.09,6.21-.13.4-.27.46-.65.32-.88-.33-1.77-.62-2.66-.91-.29-.1-.42-.18-.29-.56.74-2.09,1.44-4.2,2.15-6.31.08-.24.12-.41.46-.29.95.36,1.93.66,2.89,1C72.16,34.88,72.35,34.87,72.33,35.12Z"/><path class="cls-2" d="M85.08,41.66l-.21.34c-1.18,1.86-2.37,3.71-3.55,5.58-.17.27-.29.39-.61.17-.81-.55-1.63-1.08-2.47-1.58-.29-.18-.3-.31-.13-.58,1.22-1.89,2.42-3.78,3.64-5.68.09-.15.15-.34.41-.17.91.6,1.82,1.17,2.73,1.76A1.35,1.35,0,0,1,85.08,41.66Z"/><path class="cls-2" d="M29.62,39.67c.16,0,.19.17.25.27,1.22,1.89,2.42,3.79,3.64,5.67.19.3.11.41-.15.57-.84.51-1.67,1-2.47,1.59-.3.2-.41.11-.58-.15-1.18-1.88-2.39-3.76-3.58-5.63-.1-.16-.32-.31,0-.5.92-.57,1.82-1.16,2.74-1.74Z"/><path class="cls-2" d="M57.69,35.6c0,1.06,0,2.13,0,3.19,0,.38-.06.54-.49.53-.94,0-1.88,0-2.81,0-.34,0-.47-.05-.47-.43,0-2.21,0-4.41,0-6.62,0-.4.13-.49.5-.48.89,0,1.79,0,2.68,0,.45,0,.62.08.6.57C57.66,33.43,57.69,34.52,57.69,35.6Z"/><path class="cls-2" d="M55.78,60a1.87,1.87,0,0,1-1.85-1.88,1.88,1.88,0,1,1,3.75.06A1.87,1.87,0,0,1,55.78,60Z"/></g></g></svg>