<svg xmlns="http://www.w3.org/2000/svg" xmlns:xlink="http://www.w3.org/1999/xlink" viewBox="0 0 203.54 203.54"><defs><style>.cls-1{fill:url(#linear-gradient);}.cls-2,.cls-3{fill:none;stroke:#fff;stroke-miterlimit:10;stroke-width:3px;}.cls-3{stroke-linecap:round;}.cls-4{fill:#fff;}</style><linearGradient id="linear-gradient" y1="101.77" x2="203.54" y2="101.77" gradientUnits="userSpaceOnUse"><stop offset="0" stop-color="#983794"/><stop offset="1" stop-color="#662d91"/></linearGradient></defs><g id="Layer_2" data-name="Layer 2"><g id="Layer_1-2" data-name="Layer 1"><circle class="cls-1" cx="101.77" cy="101.77" r="101.77"/><rect class="cls-2" x="50.52" y="54.26" width="102.51" height="68.43" rx="10.79"/><rect class="cls-2" x="94.21" y="116.28" width="1.52" height="1.52" rx="0.27"/><rect class="cls-2" x="100.85" y="116.28" width="1.52" height="1.52" rx="0.27"/><rect class="cls-2" x="107.48" y="116.28" width="1.52" height="1.52" rx="0.27"/><rect class="cls-2" x="94.53" y="142.51" width="1.1" height="1.1" rx="0.27"/><rect class="cls-2" x="98.99" y="135.88" width="4.7" height="1.1" rx="0.27"/><rect class="cls-2" x="94.13" y="149.23" width="14.45" height="1.1" rx="0.27"/><rect class="cls-2" x="100.82" y="142.51" width="1.1" height="1.1" rx="0.27"/><rect class="cls-2" x="107.48" y="142.51" width="1.1" height="1.1" rx="0.27"/><rect class="cls-2" x="94.34" y="155.95" width="1.1" height="1.1" rx="0.27"/><rect class="cls-2" x="100.64" y="155.95" width="1.1" height="1.1" rx="0.27"/><rect class="cls-2" x="107.3" y="155.95" width="1.1" height="1.1" rx="0.27"/><rect class="cls-2" x="50.52" y="109.89" width="102.51" height="0.37"/><path class="cls-3" d="M87.44,159.28l3.83-24.21a5.47,5.47,0,0,1,5.39-4.61h8.93a5.46,5.46,0,0,1,5.35,4.4l4.83,24.42"/><polyline class="cls-3" points="63.25 123.01 63.25 123.01 60.59 128.43 60.59 128.43"/><polyline class="cls-3" points="140.05 122.68 140.05 122.68 142.7 128.1 142.7 128.1"/><path class="cls-4" d="M85.07,80.89A16.23,16.23,0,0,0,85.71,78a19.7,19.7,0,0,1,4.7-8.39A2.35,2.35,0,0,1,93,69a2.12,2.12,0,0,1,1.5,1.83,2.54,2.54,0,0,1-.76,2.11,14.13,14.13,0,0,0-3.55,6.58,13.92,13.92,0,0,0,2.74,12c.36.46.76.89,1.1,1.36A2.28,2.28,0,0,1,93.7,96a2.38,2.38,0,0,1-3.18-.19,17.3,17.3,0,0,1-3.44-4.86,18.09,18.09,0,0,1-1.85-6.51c0-.14,0-.29-.16-.33Z"/><path class="cls-4" d="M122.43,82.26a18.65,18.65,0,0,1-4.92,13.09,2.69,2.69,0,0,1-1.71,1.08,2.28,2.28,0,0,1-2.41-1.13,2.22,2.22,0,0,1,.24-2.57c.52-.71,1.14-1.36,1.65-2.08a14,14,0,0,0-.62-16.85c-.35-.43-.73-.84-1-1.29a2.24,2.24,0,0,1,.32-3.14,2.29,2.29,0,0,1,3.15.16A18.19,18.19,0,0,1,121.87,78,15.94,15.94,0,0,1,122.43,82.26Z"/><path class="cls-4" d="M92.94,82.44a10.57,10.57,0,0,1,3.39-7.67,2.3,2.3,0,1,1,3.33,3.16,6.49,6.49,0,0,0-1.73,6.72,7.45,7.45,0,0,0,1.78,2.77,2.28,2.28,0,0,1-2,3.84,2.71,2.71,0,0,1-1.74-1A10.89,10.89,0,0,1,92.94,82.44Z"/><path class="cls-4" d="M114.69,82.72a10.6,10.6,0,0,1-3.65,8,2.26,2.26,0,0,1-2.84.13,2.35,2.35,0,0,1-.81-2.6,4.24,4.24,0,0,1,1-1.35,6.25,6.25,0,0,0,1.33-6.35,8,8,0,0,0-1.76-2.7,2.26,2.26,0,0,1,.74-3.67,2.23,2.23,0,0,1,2.6.53A10.77,10.77,0,0,1,114.69,82.72Z"/><path class="cls-4" d="M103.77,79.86a2.77,2.77,0,0,1,2.83,2.77,2.79,2.79,0,0,1-5.57.08A2.75,2.75,0,0,1,103.77,79.86Z"/></g></g></svg>