<svg xmlns="http://www.w3.org/2000/svg" xmlns:xlink="http://www.w3.org/1999/xlink" viewBox="0 0 203.54 203.54"><defs><style>.cls-1{fill:url(#linear-gradient);}.cls-2{fill:#fff;}</style><linearGradient id="linear-gradient" y1="101.77" x2="203.54" y2="101.77" gradientUnits="userSpaceOnUse"><stop offset="0" stop-color="#983794"/><stop offset="1" stop-color="#662d91"/></linearGradient></defs><g id="Layer_2" data-name="Layer 2"><g id="Layer_1-2" data-name="Layer 1"><circle class="cls-1" cx="101.77" cy="101.77" r="101.77"/><path class="cls-2" d="M66.17,120.22c0-3.12-.08-6.21,0-9.28.19-5.59,3.78-9.19,9.33-9.24,9.45-.07,18.89,0,28.33,0,2.31,0,4.29.43,4.29,3.22s-2,3.2-4.31,3.19c-8.93,0-17.86.08-26.78-.06-3.17,0-4.42,1.11-4.39,4.3.1,10.22.08,20.44,0,30.66,0,2.76,1,3.93,3.89,3.92q21.93-.15,43.86,0c3.15,0,4-1.29,4-4.2-.14-5.69,0-11.39-.05-17.08,0-2.26.35-4.35,3.1-4.46,3.07-.13,3.39,2.12,3.38,4.52,0,5.95.06,11.9,0,17.85-.08,6.27-3.34,9.76-9.5,9.81q-22.69.16-45.41,0c-6.33,0-9.67-3.65-9.74-10,0-4.27-.14-8.55,0-12.81.1-2.47-.55-3.45-3.17-4.08A30.7,30.7,0,0,1,61.2,67.21a30.1,30.1,0,0,1,13.81-1,4.1,4.1,0,0,0,4.53-1.6c10.15-12,23.06-16.84,38.44-13.51,15.59,3.39,25.24,13.41,29.27,28.72a5.31,5.31,0,0,0,3.54,3.93c8.86,4.08,13.78,12.58,13.22,22.58a22.86,22.86,0,0,1-15.45,19.94c-1.31.44-2.67,1.13-4.13.71a3,3,0,0,1-2.41-3.1c0-2.09,1.36-3,3.1-3.39a15.79,15.79,0,0,0,11.71-10.8,16.17,16.17,0,0,0-11.71-21c-2.56-.59-3.27-1.71-3.6-4C139.57,70.82,130,60.32,117,57.45c-13.7-3-26.95,2.37-34.47,14.36-1.56,2.48-2.83,2.36-5.19,1.63A24.15,24.15,0,0,0,46.57,91.22,23.84,23.84,0,0,0,66.17,120.22Z"/><path class="cls-2" d="M123.57,83.89c10.5-.18,24,13.36,23.83,24.1,0,1.92-1,3.32-2.88,3.53a3.13,3.13,0,0,1-3.56-2.83,22.81,22.81,0,0,0-2.1-7,21,21,0,0,0-16-11.43c-2.13-.34-3.36-1.53-3-3.66C120.07,84.72,121.45,83.79,123.57,83.89Z"/><path class="cls-2" d="M120,93.2c7.71-.25,18.76,10.92,18.15,18.38a3.19,3.19,0,0,1-2.87,3.17,3.13,3.13,0,0,1-3.61-2.77,15.77,15.77,0,0,0-4.14-8.13A16.37,16.37,0,0,0,119,99.52a2.94,2.94,0,0,1-2.41-3.76A3.07,3.07,0,0,1,120,93.2Z"/><path class="cls-2" d="M116.28,102.6c5.2,0,12.54,7.45,12.35,12.18a3.12,3.12,0,0,1-2.39,3.16,2.75,2.75,0,0,1-3.54-1.63,11.42,11.42,0,0,0-8-7.76c-1.48-.45-1.76-2.16-1.33-3.67A3.06,3.06,0,0,1,116.28,102.6Z"/><path class="cls-2" d="M113.13,122c-2.26-.38-3.72-1.55-3.65-4a3.46,3.46,0,0,1,3.61-3.66A3.54,3.54,0,0,1,117,118C117.07,120.34,115.57,121.69,113.13,122Z"/><path class="cls-2" d="M94.59,138.74H94c0-.06-.09-.05-.13-.06a1.75,1.75,0,0,1-1.16-1.07,3.43,3.43,0,0,1-.23-1.38V120.58a3.94,3.94,0,0,1,.14-1.13,1.77,1.77,0,0,1,1.88-1.38,3.4,3.4,0,0,1,1.44.5l13.69,7.85a4.77,4.77,0,0,1,.89.66,1.76,1.76,0,0,1,.12,2.5,3.47,3.47,0,0,1-1.07.84c-3.87,2.22-7.73,4.45-11.61,6.65A11.94,11.94,0,0,1,94.59,138.74Z"/></g></g></svg>